HIERARCHY
ROOT mixamorig:Hips
{
	OFFSET 0.000000 201.639420 0.000000
	CHANNELS 6 Xposition Yposition Zposition Xrotation Yrotation Zrotation
	JOINT mixamorig:Spine
	{
		OFFSET 0.006200 19.524994 -2.481800
		CHANNELS 3 Xrotation Yrotation Zrotation
		JOINT mixamorig:Spine1
		{
			OFFSET -0.000900 22.835007 -2.825400
			CHANNELS 3 Xrotation Yrotation Zrotation
			JOINT mixamorig:Spine2
			{
				OFFSET -0.020600 26.552490 -3.193300
				CHANNELS 3 Xrotation Yrotation Zrotation
				JOINT mixamorig:Neck
				{
					OFFSET -0.060000 30.701813 1.352200
					CHANNELS 3 Xrotation Yrotation Zrotation
					JOINT mixamorig:Head
					{
						OFFSET -0.087200 22.547607 3.670900
						CHANNELS 3 Xrotation Yrotation Zrotation
						JOINT mixamorig:HeadTop_End
						{
							OFFSET -0.830600 40.355194 7.893500
							CHANNELS 3 Xrotation Yrotation Zrotation
							End Site
							{
								OFFSET 0.000000 30.592346 0.000000
							}
						}
						JOINT mixamorig:RightEye
						{
							OFFSET -6.302100 18.118591 16.197100
							CHANNELS 3 Xrotation Yrotation Zrotation
							End Site
							{
								OFFSET 0.000000 30.592346 0.000000
							}
						}
						JOINT mixamorig:LeftEye
						{
							OFFSET 6.741500 18.382690 16.401899
							CHANNELS 3 Xrotation Yrotation Zrotation
							End Site
							{
								OFFSET 0.000000 30.592346 0.000000
							}
						}
					}
				}
				JOINT mixamorig:LeftShoulder
				{
					OFFSET 11.924900 18.230499 1.425400
					CHANNELS 3 Xrotation Yrotation Zrotation
					JOINT mixamorig:LeftArm
					{
						OFFSET 25.435989 -0.697632 -5.229300
						CHANNELS 3 Xrotation Yrotation Zrotation
						JOINT mixamorig:LeftForeArm
						{
							OFFSET 54.684776 0.000000 0.000000
							CHANNELS 3 Xrotation Yrotation Zrotation
							JOINT mixamorig:LeftHand
							{
								OFFSET 55.098175 0.000000 0.000000
								CHANNELS 3 Xrotation Yrotation Zrotation
								JOINT mixamorig:LeftHandMiddle1
								{
									OFFSET 23.369751 0.000000 0.000000
									CHANNELS 3 Xrotation Yrotation Zrotation
									JOINT mixamorig:LeftHandMiddle2
									{
										OFFSET 6.378677 0.000000 0.000000
										CHANNELS 3 Xrotation Yrotation Zrotation
										JOINT mixamorig:LeftHandMiddle3
										{
											OFFSET 6.148331 0.000000 0.000000
											CHANNELS 3 Xrotation Yrotation Zrotation
											JOINT mixamorig:LeftHandMiddle4
											{
												OFFSET 6.582504 0.000000 0.000000
												CHANNELS 3 Xrotation Yrotation Zrotation
												End Site
												{
													OFFSET -1.168900 6.395691 1.028606
												}
											}
										}
									}
								}
								JOINT mixamorig:LeftHandThumb1
								{
									OFFSET 7.235672 -3.848206 5.434273
									CHANNELS 3 Xrotation Yrotation Zrotation
									JOINT mixamorig:LeftHandThumb2
									{
										OFFSET 6.568451 -3.792297 3.792300
										CHANNELS 3 Xrotation Yrotation Zrotation
										JOINT mixamorig:LeftHandThumb3
										{
											OFFSET 6.063080 -3.500519 3.500518
											CHANNELS 3 Xrotation Yrotation Zrotation
											JOINT mixamorig:LeftHandThumb4
											{
												OFFSET 4.793182 -2.767334 2.767349
												CHANNELS 3 Xrotation Yrotation Zrotation
												End Site
												{
													OFFSET 0.101639 6.054260 1.275483
												}
											}
										}
									}
								}
								JOINT mixamorig:LeftHandIndex1
								{
									OFFSET 23.101074 -0.309540 4.992809
									CHANNELS 3 Xrotation Yrotation Zrotation
									JOINT mixamorig:LeftHandIndex2
									{
										OFFSET 6.226883 0.000000 0.000000
										CHANNELS 3 Xrotation Yrotation Zrotation
										JOINT mixamorig:LeftHandIndex3
										{
											OFFSET 6.094330 0.000000 0.000000
											CHANNELS 3 Xrotation Yrotation Zrotation
											JOINT mixamorig:LeftHandIndex4
											{
												OFFSET 5.482605 0.000000 0.000000
												CHANNELS 3 Xrotation Yrotation Zrotation
												End Site
												{
													OFFSET -1.427902 5.233032 0.797164
												}
											}
										}
									}
								}
								JOINT mixamorig:LeftHandRing1
								{
									OFFSET 22.299240 0.021149 -3.964172
									CHANNELS 3 Xrotation Yrotation Zrotation
									JOINT mixamorig:LeftHandRing2
									{
										OFFSET 6.321869 0.000000 0.000000
										CHANNELS 3 Xrotation Yrotation Zrotation
										JOINT mixamorig:LeftHandRing3
										{
											OFFSET 5.899796 0.000000 0.000000
											CHANNELS 3 Xrotation Yrotation Zrotation
											JOINT mixamorig:LeftHandRing4
											{
												OFFSET 6.517899 0.000000 0.000000
												CHANNELS 3 Xrotation Yrotation Zrotation
												End Site
												{
													OFFSET -1.637299 6.232208 0.980890
												}
											}
										}
									}
								}
								JOINT mixamorig:LeftHandPinky1
								{
									OFFSET 20.463791 -0.302338 -8.562233
									CHANNELS 3 Xrotation Yrotation Zrotation
									JOINT mixamorig:LeftHandPinky2
									{
										OFFSET 6.908646 0.000000 0.000000
										CHANNELS 3 Xrotation Yrotation Zrotation
										JOINT mixamorig:LeftHandPinky3
										{
											OFFSET 4.622849 0.000000 0.000000
											CHANNELS 3 Xrotation Yrotation Zrotation
											JOINT mixamorig:LeftHandPinky4
											{
												OFFSET 5.216080 0.000000 0.000000
												CHANNELS 3 Xrotation Yrotation Zrotation
												End Site
												{
													OFFSET -0.606308 5.116241 0.814926
												}
											}
										}
									}
								}
							}
						}
					}
				}
				JOINT mixamorig:RightShoulder
				{
					OFFSET -12.001300 18.284088 1.348900
					CHANNELS 3 Xrotation Yrotation Zrotation
					JOINT mixamorig:RightArm
					{
						OFFSET -25.308500 -0.751312 -5.164599
						CHANNELS 3 Xrotation Yrotation Zrotation
						JOINT mixamorig:RightForeArm
						{
							OFFSET -54.684429 0.000000 0.000000
							CHANNELS 3 Xrotation Yrotation Zrotation
							JOINT mixamorig:RightHand
							{
								OFFSET -55.150291 0.000000 0.000000
								CHANNELS 3 Xrotation Yrotation Zrotation
								JOINT mixamorig:RightHandMiddle1
								{
									OFFSET -23.317566 0.000000 0.000000
									CHANNELS 3 Xrotation Yrotation Zrotation
									JOINT mixamorig:RightHandMiddle2
									{
										OFFSET -6.378403 0.000000 0.000000
										CHANNELS 3 Xrotation Yrotation Zrotation
										JOINT mixamorig:RightHandMiddle3
										{
											OFFSET -6.148193 0.000000 0.000000
											CHANNELS 3 Xrotation Yrotation Zrotation
											JOINT mixamorig:RightHandMiddle4
											{
												OFFSET -6.583389 0.000000 0.000000
												CHANNELS 3 Xrotation Yrotation Zrotation
												End Site
												{
													OFFSET 1.171692 6.395905 1.029786
												}
											}
										}
									}
								}
								JOINT mixamorig:RightHandThumb1
								{
									OFFSET -7.190521 -3.860474 5.435846
									CHANNELS 3 Xrotation Yrotation Zrotation
									JOINT mixamorig:RightHandThumb2
									{
										OFFSET -6.567429 -3.791718 3.791708
										CHANNELS 3 Xrotation Yrotation Zrotation
										JOINT mixamorig:RightHandThumb3
										{
											OFFSET -6.062469 -3.500153 3.500166
											CHANNELS 3 Xrotation Yrotation Zrotation
											JOINT mixamorig:RightHandThumb4
											{
												OFFSET -4.792618 -2.767029 2.767022
												CHANNELS 3 Xrotation Yrotation Zrotation
												End Site
												{
													OFFSET -0.100327 6.053253 1.276754
												}
											}
										}
									}
								}
								JOINT mixamorig:RightHandIndex1
								{
									OFFSET -23.048981 -0.310791 4.992554
									CHANNELS 3 Xrotation Yrotation Zrotation
									JOINT mixamorig:RightHandIndex2
									{
										OFFSET -6.227539 0.000000 0.000000
										CHANNELS 3 Xrotation Yrotation Zrotation
										JOINT mixamorig:RightHandIndex3
										{
											OFFSET -6.095047 0.000000 0.000000
											CHANNELS 3 Xrotation Yrotation Zrotation
											JOINT mixamorig:RightHandIndex4
											{
												OFFSET -5.484772 0.000000 0.000000
												CHANNELS 3 Xrotation Yrotation Zrotation
												End Site
												{
													OFFSET 1.420593 5.237305 0.797056
												}
											}
										}
									}
								}
								JOINT mixamorig:RightHandRing1
								{
									OFFSET -22.246323 0.020569 -3.963762
									CHANNELS 3 Xrotation Yrotation Zrotation
									JOINT mixamorig:RightHandRing2
									{
										OFFSET -6.322128 0.000000 0.000000
										CHANNELS 3 Xrotation Yrotation Zrotation
										JOINT mixamorig:RightHandRing3
										{
											OFFSET -5.900024 0.000000 0.000000
											CHANNELS 3 Xrotation Yrotation Zrotation
											JOINT mixamorig:RightHandRing4
											{
												OFFSET -6.518356 0.000000 0.000000
												CHANNELS 3 Xrotation Yrotation Zrotation
												End Site
												{
													OFFSET 1.636398 6.232697 0.982186
												}
											}
										}
									}
								}
								JOINT mixamorig:RightHandPinky1
								{
									OFFSET -20.411011 -0.303314 -8.561701
									CHANNELS 3 Xrotation Yrotation Zrotation
									JOINT mixamorig:RightHandPinky2
									{
										OFFSET -6.907349 0.000000 0.000000
										CHANNELS 3 Xrotation Yrotation Zrotation
										JOINT mixamorig:RightHandPinky3
										{
											OFFSET -4.623840 0.000000 0.000000
											CHANNELS 3 Xrotation Yrotation Zrotation
											JOINT mixamorig:RightHandPinky4
											{
												OFFSET -5.218353 0.000000 0.000000
												CHANNELS 3 Xrotation Yrotation Zrotation
												End Site
												{
													OFFSET 0.602097 5.118835 0.816273
												}
											}
										}
									}
								}
							}
						}
					}
				}
			}
		}
	}
	JOINT mixamorig:LeftUpLeg
	{
		OFFSET 18.168400 -13.561905 -0.039000
		CHANNELS 3 Xrotation Yrotation Zrotation
		JOINT mixamorig:LeftLeg
		{
			OFFSET 0.577358 -80.825211 -3.695000
			CHANNELS 3 Xrotation Yrotation Zrotation
			JOINT mixamorig:LeftFoot
			{
				OFFSET -0.577356 -83.370262 -6.520700
				CHANNELS 3 Xrotation Yrotation Zrotation
				JOINT mixamorig:LeftToeBase
				{
					OFFSET 0.750401 -20.798306 25.135401
					CHANNELS 3 Xrotation Yrotation Zrotation
					JOINT mixamorig:LeftToe_End
					{
						OFFSET -0.000500 0.001200 19.917799
						CHANNELS 3 Xrotation Yrotation Zrotation
						End Site
						{
							OFFSET 0.000000 19.917805 0.000000
						}
					}
				}
			}
		}
	}
	JOINT mixamorig:RightUpLeg
	{
		OFFSET -18.162500 -13.585098 -0.041000
		CHANNELS 3 Xrotation Yrotation Zrotation
		JOINT mixamorig:RightLeg
		{
			OFFSET -0.595024 -80.945297 -3.631900
			CHANNELS 3 Xrotation Yrotation Zrotation
			JOINT mixamorig:RightFoot
			{
				OFFSET 0.595024 -83.218193 -6.561200
				CHANNELS 3 Xrotation Yrotation Zrotation
				JOINT mixamorig:RightToeBase
				{
					OFFSET -0.753601 -20.807106 25.115000
					CHANNELS 3 Xrotation Yrotation Zrotation
					JOINT mixamorig:RightToe_End
					{
						OFFSET 0.000299 0.001700 19.918200
						CHANNELS 3 Xrotation Yrotation Zrotation
						End Site
						{
							OFFSET 0.000000 19.918203 0.000000
						}
					}
				}
			}
		}
	}
}
MOTION
Frames: 4
Frame Time: 0.033333
0.796232 194.189255 -1.373932 -16.903793 -38.978804 -9.389206 7.991551 -0.056131 -0.143345 16.413455 -0.125519 -0.745993 16.413520 -0.192922 -0.721086 0.367428 7.480969 0.837547 -6.982154 21.597275 11.882993 -0.000002 0.000001 -0.000000 -0.000002 0.000001 -0.000000 -0.000002 0.000001 -0.000000 -37.571081 -4.822522 1.545821 -41.628422 -7.015809 -61.684388 0.000095 -64.995875 0.000097 -119.359646 1.120093 32.550247 0.405917 5.507014 -52.453169 3.387123 5.308611 -65.057470 0.282015 1.797459 -17.832367 0.000001 0.000001 0.000001 4.709216 9.560370 3.111989 19.473194 -1.474888 7.636926 -4.536179 -9.613122 1.492981 -0.000001 0.000002 -0.000000 -0.212814 3.933691 -36.747121 2.942132 5.078912 -60.144610 0.513667 2.400803 -24.150518 -0.000004 0.000000 -0.000001 -0.074363 5.736788 -61.061420 4.055041 5.569511 -72.094914 0.582671 2.548966 -25.748013 0.000001 -0.000002 -0.000003 -6.565573 4.545119 -72.425222 3.299631 5.267209 -64.107828 0.175345 1.424012 -14.038889 0.000003 0.000000 -0.000001 -41.176294 -8.605646 -9.942312 -46.819663 58.242949 100.948714 -0.000344 98.442984 0.000349 -52.463083 -17.216620 -29.273095 3.413062 -7.186260 51.650239 6.296817 -4.359586 110.634687 0.248736 -1.503072 18.790260 0.000000 0.000000 -0.000000 8.377133 -4.904138 11.022003 21.620195 -18.183895 -18.379221 -0.702949 -49.821193 -32.535207 -0.000001 -0.000001 0.000000 -0.920031 1.683578 12.434983 0.748132 -2.533435 32.898296 0.615632 -2.316068 29.767826 0.000001 -0.000001 -0.000001 -3.349024 -2.600416 57.010575 5.440858 -4.590910 99.698147 1.689396 -3.590691 50.382221 -0.000001 0.000000 0.000000 -3.996444 -3.303947 64.593857 4.058853 -4.618670 82.610530 2.315549 -4.026777 59.787214 -0.000001 0.000000 -0.000000 -22.407704 42.915984 28.577704 22.062421 0.575574 -0.746539 4.272083 1.294422 -2.548900 0.000039 -0.000005 0.000007 0.000000 -0.000000 0.000000 2.198781 4.799063 -5.541995 31.185220 0.010979 0.999829 -18.922969 -17.260498 4.201029 -0.020492 0.000014 -0.000004 -0.000000 0.000003 0.000000 
0.168951 194.162903 -1.293339 -16.683524 -39.095859 -9.140562 8.016171 -0.031133 -0.287427 16.440878 -0.155617 -0.773463 16.443054 -0.223904 -0.747290 0.376314 7.523768 0.745548 -6.935426 21.649724 11.928231 0.000000 -0.000001 -0.000003 0.000000 -0.000001 -0.000003 0.000000 -0.000001 -0.000003 -37.571802 -4.794514 1.602550 -41.978640 -6.769682 -61.558289 0.000050 -64.612114 0.000043 -118.809078 1.778240 32.602190 0.405918 5.507010 -52.453169 3.387128 5.308611 -65.057470 0.282014 1.797460 -17.832371 -0.000002 -0.000000 0.000000 4.709204 9.560389 3.111986 19.473195 -1.474889 7.636925 -4.536183 -9.613124 1.492981 -0.000001 0.000002 0.000001 -0.212819 3.933724 -36.747138 2.942135 5.078906 -60.144610 0.513671 2.400804 -24.150519 -0.000001 -0.000001 -0.000001 -0.074363 5.736796 -61.061420 4.055041 5.569522 -72.094887 0.582667 2.548963 -25.748013 0.000001 0.000000 -0.000001 -6.565575 4.545149 -72.425236 3.299621 5.267199 -64.107848 0.175345 1.424020 -14.038876 0.000003 -0.000001 0.000005 -41.181096 -8.575972 -9.945038 -47.797415 58.498221 101.937732 0.000794 97.728956 -0.000848 -52.503811 -16.212880 -29.243182 3.540223 -7.268940 52.010535 6.428665 -4.307794 112.379165 0.296220 -1.636007 20.524662 0.000001 -0.000001 -0.000001 8.608462 -5.071881 11.243081 21.721456 -18.343557 -18.347891 -0.428102 -50.550169 -32.616523 0.000002 0.000002 0.000001 -0.890850 1.697952 12.077325 0.748132 -2.533436 32.898293 0.619856 -2.323393 29.871802 0.000001 0.000000 -0.000000 -3.401227 -2.607908 57.310417 5.439818 -4.591084 99.685136 1.688668 -3.590088 50.370593 -0.000002 -0.000001 -0.000000 -3.985850 -3.332898 64.759680 4.045284 -4.616897 82.442350 2.303776 -4.019932 59.619478 -0.000001 -0.000001 -0.000001 -22.456014 43.055300 28.613624 21.896789 0.384975 -0.738700 4.379606 1.295676 -2.737749 -0.172381 -0.000009 0.000000 0.000000 0.000000 0.000000 2.042083 4.772445 -5.472663 31.423016 0.056639 0.967351 -19.434144 -17.296489 3.854333 -0.324226 0.000015 0.000001 -0.000000 -0.000002 -0.000000 
-0.565176 194.100235 -1.158516 -16.436109 -39.187042 -8.856268 8.119205 -0.030995 -0.432180 16.502854 -0.224483 -0.778506 16.506646 -0.292853 -0.749488 0.353023 7.577680 0.620499 -6.958092 21.698912 11.972301 -0.000001 -0.000001 -0.000001 -0.000001 -0.000001 -0.000001 -0.000001 -0.000001 -0.000001 -37.582949 -4.813501 1.610752 -42.428988 -6.244383 -61.329109 0.000099 -64.448586 0.000112 -118.380975 2.444147 32.493556 0.405917 5.507017 -52.453172 3.387133 5.308608 -65.057477 0.282014 1.797459 -17.832371 -0.000000 0.000002 -0.000002 4.709212 9.560374 3.111987 19.473195 -1.474889 7.636926 -4.536185 -9.613126 1.492982 -0.000003 0.000001 -0.000001 -0.212820 3.933704 -36.747135 2.942134 5.078904 -60.144610 0.513673 2.400805 -24.150519 -0.000000 0.000001 -0.000002 -0.074365 5.736795 -61.061420 4.055033 5.569514 -72.094935 0.582671 2.548966 -25.748012 -0.000002 -0.000002 0.000002 -6.565575 4.545141 -72.425236 3.299634 5.267213 -64.107814 0.175350 1.424015 -14.038883 0.000000 0.000003 -0.000000 -41.214837 -8.536081 -10.086290 -49.273490 58.689370 103.298169 0.001172 96.964876 -0.001287 -52.180340 -15.300621 -29.133113 3.540077 -7.268838 52.010142 6.428518 -4.307855 112.377260 0.296180 -1.635860 20.522775 0.000001 -0.000001 -0.000001 8.608204 -5.071711 11.242819 21.721327 -18.343376 -18.347958 -0.428397 -50.549376 -32.616407 -0.000001 -0.000000 -0.000002 -0.890892 1.697923 12.077678 0.748132 -2.533434 32.898289 0.619836 -2.323392 29.871679 0.000001 0.000001 -0.000000 -3.401167 -2.607893 57.310075 5.439828 -4.591086 99.685129 1.688673 -3.590071 50.370644 -0.000002 0.000001 -0.000001 -3.985889 -3.332879 64.759496 4.045326 -4.616898 82.442528 2.303788 -4.019939 59.619656 -0.000002 -0.000000 0.000001 -22.677353 43.349455 28.944450 21.823882 0.189199 -0.925488 4.431312 1.078882 -2.824343 -0.223811 0.000003 -0.000000 -0.000000 -0.000000 0.000000 1.759514 4.706405 -5.410206 31.850620 0.205709 0.918871 -19.885010 -17.369046 3.638734 -0.586068 0.000011 -0.000005 0.000000 0.000003 0.000000 
-1.333174 193.952667 -0.976070 -16.069084 -39.164523 -8.441172 8.308428 -0.055789 -0.540331 16.633000 -0.322967 -0.741307 16.636498 -0.389061 -0.705705 0.257814 7.634194 0.438470 -6.908619 21.655764 11.948545 -0.000002 -0.000003 -0.000000 -0.000002 -0.000003 -0.000000 -0.000002 -0.000003 -0.000000 -37.608931 -4.926422 1.449917 -43.187156 -5.655444 -61.010146 0.000006 -64.192461 0.000004 -118.072456 3.131518 32.127188 0.405917 5.507014 -52.453169 3.387128 5.308609 -65.057470 0.282019 1.797459 -17.832364 -0.000006 0.000001 -0.000001 4.709205 9.560387 3.111986 19.473195 -1.474882 7.636924 -4.536179 -9.613125 1.492980 0.000002 0.000001 0.000000 -0.212821 3.933720 -36.747128 2.942133 5.078904 -60.144610 0.513672 2.400804 -24.150519 0.000000 0.000002 -0.000001 -0.074362 5.736797 -61.061420 4.055061 5.569519 -72.094901 0.582661 2.548958 -25.748008 0.000000 0.000000 -0.000000 -6.565587 4.545144 -72.425236 3.299618 5.267224 -64.107821 0.175353 1.424022 -14.038889 0.000002 -0.000003 0.000001 -41.272398 -8.473475 -10.331196 -51.058727 58.732933 104.722414 -0.002877 96.112885 0.002856 -51.542715 -14.519521 -28.911938 3.539657 -7.268589 52.008960 6.428098 -4.308019 112.371604 0.296008 -1.635438 20.517181 0.000000 -0.000001 0.000001 8.607466 -5.071171 11.242110 21.721012 -18.342866 -18.348048 -0.429283 -50.547030 -32.616155 -0.000002 0.000001 -0.000002 -0.890978 1.697877 12.078840 0.748133 -2.533435 32.898289 0.619825 -2.323365 29.871361 0.000001 -0.000001 -0.000003 -3.401001 -2.607859 57.309112 5.439813 -4.591096 99.685190 1.688687 -3.590090 50.370685 -0.000000 -0.000000 -0.000003 -3.985911 -3.332784 64.758936 4.045367 -4.616888 82.443047 2.303816 -4.019935 59.620209 0.000000 -0.000000 0.000001 -21.679709 41.594052 27.873428 22.097154 2.261661 -1.166452 4.296342 0.650152 -3.228519 -0.112485 -0.000002 0.000001 0.000000 -0.000000 0.000000 1.377705 4.485196 -5.507597 32.372938 0.400490 1.012660 -20.298002 -17.470833 3.415097 -0.782373 -0.000011 -0.000001 0.000000 0.000000 0.000000 
